<svg width="158" height="143" viewBox="0 0 158 143" fill="none" xmlns="http://www.w3.org/2000/svg">
<path d="M91.1305 80.8505C89.7742 81.1278 88.4556 81.6687 87.2568 82.439C84.1329 84.3951 82.3316 87.2477 83.2336 88.8099C84.1355 90.3722 87.3991 90.052 90.5229 88.0959C91.7382 87.3542 92.8151 86.3954 93.6872 85.2788C94.0917 84.7389 94.1588 84.0562 93.8586 83.538L92.6869 81.5085C92.3887 80.9887 91.778 80.7308 91.1305 80.8505Z" fill="#D5D6DB"/>
<path d="M83.2556 53.8565C82.2721 54.0578 81.3159 54.4501 80.4465 55.0088C78.1819 56.4268 76.875 58.4952 77.5285 59.6271C78.182 60.7589 80.5493 60.5265 82.8136 59.1087C83.6948 58.5705 84.4756 57.8749 85.1081 57.0652C85.401 56.6738 85.4496 56.1793 85.232 55.8035L84.3835 54.334C84.1676 53.9572 83.725 53.7698 83.2556 53.8565Z" fill="#D5D6DB"/>
<path d="M70.4372 54.7378C70.2176 54.708 69.9843 54.7619 69.7827 54.8883L64.4647 58.2171C64.0198 58.4947 63.846 59.0447 64.0767 59.4459C64.1295 59.5378 64.2012 59.6169 64.288 59.6786L77.5613 69.1753L95.2941 58.0755L70.4372 54.7378Z" fill="#029BC5"/>
<path d="M126.861 54.1692L78.4061 84.4573L49.6755 95.5402L34.9955 98.1945L33.3513 95.3434L114.127 45.8644C116.535 44.3833 119.223 43.502 121.922 43.31C123.103 43.2324 124.272 43.2995 125.4 43.5092C126.399 43.6871 127.349 44.0077 128.221 44.4615C129.193 44.9754 131.037 45.0745 131.643 46.0677C131.645 46.0662 133.095 50.5955 126.861 54.1692Z" fill="#E1E6E9"/>
<path d="M78.8736 79.9465L58.1361 113.637C57.8776 114.111 58.0388 114.652 58.4957 114.845C58.7761 114.964 59.1176 114.927 59.4031 114.748L64.7303 111.409C65.7549 110.767 66.6598 109.942 67.389 108.985L107.768 61.0462L78.8736 79.9465Z" fill="#029BC5"/>
<path d="M25.9399 78.9028C25.5889 78.7741 25.1731 78.8273 24.8238 79.0453L20.4378 81.7821C19.8402 82.1547 19.6076 82.8919 19.9181 83.4288C19.9772 83.5309 20.0537 83.6213 20.145 83.6964L32.6023 93.9714L45.5241 86.0702L25.9399 78.9028Z" fill="#029BC5"/>
<path d="M36.6339 95.6086L30.04 104.992C29.9433 105.127 29.9679 105.3 30.095 105.377C30.1866 105.434 30.3109 105.427 30.4114 105.36L34.5279 102.781C34.5599 102.761 34.5888 102.735 34.6126 102.706L44.2645 90.8321L36.6339 95.6086Z" fill="#029BC5"/>
<path d="M124.684 43.7907C123.526 43.5761 122.327 43.5086 121.113 43.5892C119.946 45.2387 119.208 47.1048 118.972 49.0013C118.957 49.3829 119.264 49.6649 119.657 49.631C119.779 49.6203 119.9 49.5795 120.009 49.5122L127.581 44.7668C126.686 44.3012 125.711 43.9726 124.684 43.7907Z" fill="#029BC5"/>
<path d="M108.117 52.5618L113.032 49.5343L117.711 57.5127L112.797 60.5403L108.117 52.5618Z" fill="#D5D6DB"/>
<path d="M104.981 55.7599C104.389 56.126 104.157 56.8516 104.466 57.3804L104.965 58.2372C105.292 58.7532 106.03 58.8603 106.612 58.4763C107.166 58.1106 107.384 57.4269 107.11 56.9117L106.611 56.0549C106.303 55.5265 105.574 55.3943 104.981 55.7599Z" fill="#3A556A"/>
<path d="M100.517 58.5323C99.9241 58.8985 99.693 59.6241 100.001 60.1529L100.5 61.0096C100.828 61.5256 101.565 61.6327 102.148 61.2487C102.702 60.8831 102.919 60.1994 102.645 59.6841L102.146 58.8274C101.838 58.2992 101.109 58.167 100.517 58.5323Z" fill="#3A556A"/>
<path d="M96.0508 61.3057C95.4589 61.6723 95.2287 62.397 95.5364 62.9254L96.0355 63.7821C96.3633 64.2981 97.1008 64.4052 97.683 64.0212C98.2371 63.6556 98.4548 62.9719 98.1808 62.4567L97.6818 61.5999C97.3738 61.0711 96.6436 60.9394 96.0508 61.3057Z" fill="#3A556A"/>
<path d="M91.5866 64.078C90.9946 64.4447 90.7644 65.1694 91.0722 65.6978L91.5713 66.5545C91.899 67.0705 92.6366 67.1776 93.2188 66.7937C93.7728 66.428 93.9905 65.7443 93.7166 65.229L93.2176 64.3723C92.9093 63.8436 92.1792 63.7119 91.5866 64.078Z" fill="#3A556A"/>
<path d="M87.1225 66.8506C86.5303 67.2174 86.3 67.9423 86.6079 68.4709L87.1072 69.3278C87.415 69.8561 88.1448 69.9878 88.7371 69.6219C89.3295 69.2559 89.5602 68.531 89.2524 68.0027L88.7531 67.1458C88.4461 66.617 87.7166 66.4846 87.1238 66.8499C87.1233 66.8502 87.123 66.8503 87.1225 66.8506Z" fill="#3A556A"/>
<path d="M82.6582 69.6231C82.0659 69.9898 81.8356 70.7148 82.1435 71.2433L82.6428 72.1003C82.9507 72.6286 83.6804 72.7602 84.2728 72.3943C84.8652 72.0284 85.0959 71.3035 84.7881 70.7752L84.2888 69.9182C83.9817 69.3895 83.2522 69.2571 82.6594 69.6223C82.6589 69.6226 82.6584 69.6229 82.6582 69.6231Z" fill="#3A556A"/>
<path d="M78.1936 72.3956C77.6013 72.7624 77.371 73.4873 77.6789 74.0158L78.1782 74.8728C78.4868 75.4006 79.2169 75.5311 79.8086 75.1647C80.3993 74.7989 80.6296 74.0755 80.3232 73.5479L79.8239 72.6909C79.5162 72.1622 78.7865 72.03 78.1936 72.3956Z" fill="#3A556A"/>
<path d="M73.729 75.1681C73.1367 75.5349 72.9064 76.2598 73.2143 76.7883L73.7136 77.6453C74.0222 78.1732 74.7523 78.3037 75.344 77.9372C75.9347 77.5714 76.165 76.848 75.8586 76.3204L75.3593 75.4634C75.0516 74.9347 74.3219 74.8025 73.729 75.1681Z" fill="#3A556A"/>
<path d="M69.2646 77.9405C68.6724 78.3073 68.4421 79.0322 68.75 79.5607L69.2493 80.4177C69.5578 80.9455 70.2879 81.076 70.8797 80.7096C71.4704 80.3438 71.7006 79.6204 71.3942 79.0928L70.8949 78.2358C70.587 77.7073 69.8572 77.5751 69.2646 77.9405Z" fill="#3A556A"/>
<path d="M64.7988 80.7138C64.2064 81.0797 63.9757 81.8046 64.2835 82.3329L64.2842 82.334L64.7835 83.191C65.092 83.7188 65.8221 83.8493 66.4138 83.4829C67.0046 83.1171 67.2348 82.3937 66.9284 81.866L66.4291 81.0091C66.1214 80.4804 65.3917 80.3481 64.7988 80.7138Z" fill="#3A556A"/>
<path d="M60.3357 83.4855C59.7433 83.8514 59.5126 84.5763 59.8204 85.1045L59.821 85.1057L60.3203 85.9626C60.6289 86.4904 61.359 86.6209 61.9507 86.2545C62.5415 85.8887 62.7717 85.1654 62.4653 84.6377L61.966 83.7808C61.6581 83.2522 60.9283 83.12 60.3357 83.4855Z" fill="#3A556A"/>
</svg>
